<?xml version="1.0" standalone="no"?>
<!DOCTYPE svg PUBLIC "-//W3C//DTD SVG 20010904//EN"
 "http://www.w3.org/TR/2001/REC-SVG-20010904/DTD/svg10.dtd">
<svg version="1.0" xmlns="http://www.w3.org/2000/svg"
 width="300.000000pt" height="202.000000pt" viewBox="0 0 300.000000 202.000000"
 preserveAspectRatio="xMidYMid meet">
<metadata>
Created by potrace 1.16, written by Peter Selinger 2001-2019
</metadata>
<g transform="translate(0.000000,202.000000) scale(0.100000,-0.100000)"
fill="#000000" stroke="none">
<path d="M0 1010 l0 -1010 1500 0 1500 0 0 1010 0 1010 -1500 0 -1500 0 0
-1010z m87 -472 c-1 -260 -2 -50 -2 467 0 517 1 730 2 473 2 -256 2 -679 0
-940z m2116 1395 c-387 -2 -1019 -2 -1405 0 -387 1 -71 2 702 2 773 0 1089 -1
703 -2z m714 -1390 c-1 -258 -2 -47 -2 467 0 514 1 725 2 468 2 -258 2 -678 0
-935z m-17 457 l0 -920 -1400 0 -1400 0 0 920 0 920 1400 0 1400 0 0 -920z"/>
<path d="M1670 1791 l-145 -7 145 -5 145 -5 -148 -2 -148 -2 3 -52 c3 -52 3
-53 41 -59 53 -8 57 -18 5 -13 l-43 4 43 -11 42 -10 0 -378 0 -378 -42 -11
-43 -11 45 4 45 4 -43 -11 c-36 -9 -46 -9 -54 3 -7 10 -8 7 -4 -11 3 -14 6
-40 6 -57 l0 -33 240 0 240 0 0 44 0 43 -72 11 -73 11 70 -4 c58 -3 63 -2 30
5 -22 5 -55 9 -72 9 l-33 1 0 125 0 125 98 2 97 2 -100 6 -100 6 95 2 c52 1
106 5 120 7 22 5 23 4 5 -5 -16 -8 -13 -9 15 -4 56 10 82 23 74 36 -4 7 -3 8
4 4 19 -11 66 20 119 78 53 58 84 126 82 180 -1 24 -3 19 -9 -17 -12 -68 -43
-127 -92 -172 l-43 -40 37 40 c62 68 88 136 88 235 0 99 -20 152 -78 215 l-37
40 39 -35 c21 -19 49 -57 62 -85 13 -27 24 -44 24 -37 0 25 -40 91 -77 128
-38 36 -100 70 -111 60 -3 -3 1 -6 8 -6 7 0 11 -2 9 -5 -3 -2 -21 0 -40 6 -19
6 -99 15 -179 19 l-145 8 145 -3 c80 -2 156 -6 170 -9 l25 -7 -25 12 c-29 14
-248 19 -460 10z m309 -118 c23 -6 23 -7 5 -14 -17 -7 -17 -8 4 -8 39 -1 90
-28 109 -57 12 -20 20 -55 24 -118 l5 -91 2 85 c2 97 -14 136 -70 170 -18 11
-28 20 -21 20 18 0 72 -49 88 -81 10 -18 15 -57 15 -111 0 -91 -19 -147 -60
-183 -13 -11 -20 -14 -15 -6 5 9 3 12 -6 9 -8 -3 -13 -10 -12 -16 2 -6 -4 -9
-12 -6 -8 3 -22 -1 -31 -10 -12 -13 -32 -16 -83 -14 l-66 3 -3 203 c-2 187 -1
202 15 203 15 1 15 2 -2 7 l-20 5 20 8 c25 10 82 11 114 2z"/>
<path d="M1020 1736 l0 -44 58 -6 c80 -10 98 -16 81 -27 -10 -6 -11 -9 -1 -9
9 0 12 -31 12 -120 l0 -120 -80 0 c-103 0 -172 -15 -205 -46 -28 -26 -41 -31
-29 -13 4 7 1 10 -7 7 -8 -3 -13 -10 -12 -16 2 -6 -4 -9 -12 -6 -17 7 -114
-86 -112 -107 1 -8 -7 -41 -17 -73 -14 -44 -17 -79 -14 -135 5 -85 22 -126 77
-186 20 -21 28 -33 19 -26 -10 8 -18 9 -18 3 0 -13 29 -24 42 -15 7 3 8 1 4
-6 -8 -13 57 -45 77 -38 7 2 -3 7 -20 11 -18 4 -35 11 -38 16 -3 4 23 -1 58
-12 57 -18 85 -19 342 -16 l280 3 -5 55 -5 55 -40 5 -40 5 -3 394 c-1 217 1
398 5 402 5 3 26 9 48 13 28 4 34 3 20 -4 -19 -8 -19 -9 3 -9 20 -1 22 3 22
54 l0 55 -245 0 -245 0 0 -44z m128 -453 c18 -4 20 -8 10 -14 -10 -7 -10 -9 0
-9 9 0 12 -46 12 -194 l0 -194 -82 -4 c-71 -4 -86 -2 -101 14 -20 20 -42 24
-31 6 4 -7 -7 0 -24 16 -43 40 -55 84 -50 175 4 72 31 149 57 166 6 3 -2 -16
-16 -41 -20 -36 -28 -65 -31 -124 -5 -86 8 -138 40 -166 19 -17 19 -15 -3 14
-18 26 -24 49 -27 105 -7 126 25 194 103 222 22 8 33 14 25 15 -13 0 -13 1 0
10 17 11 83 13 118 3z"/>
<path d="M697 589 c-9 -6 -15 -14 -12 -20 3 -5 -1 -6 -9 -3 -10 4 -25 -9 -45
-37 -26 -35 -31 -52 -31 -97 0 -51 3 -57 44 -98 24 -24 50 -44 57 -44 11 0 11
2 -1 10 -10 6 -3 8 22 3 20 -3 57 -2 82 1 44 7 46 8 46 42 0 27 -4 34 -20 34
-11 0 -20 -6 -20 -14 0 -8 -4 -17 -9 -20 -5 -4 -7 4 -3 16 5 19 4 20 -10 7 -9
-7 -15 -18 -15 -24 2 -13 -42 -8 -60 6 -19 16 -36 87 -29 124 4 18 16 41 28
51 12 11 18 13 14 6 -6 -10 -1 -11 19 -6 18 4 30 2 36 -7 7 -11 9 -9 9 6 1 18
2 18 10 -2 6 -13 18 -23 30 -23 17 0 20 6 20 39 0 38 -1 39 -42 45 -24 3 -58
2 -75 -3 -38 -11 -44 -5 -10 9 12 5 15 9 7 9 -8 0 -23 -4 -33 -10z"/>
<path d="M1172 575 c-23 -19 -29 -33 -29 -64 0 -44 35 -90 58 -76 7 5 10 4 5
-3 -3 -6 2 -16 13 -21 29 -16 38 -13 15 5 -18 14 -18 15 4 4 13 -7 21 -14 18
-17 -3 -4 -2 -11 4 -18 11 -13 2 -55 -11 -55 -6 0 -12 7 -15 15 -4 8 -10 15
-16 15 -5 0 -6 -6 -3 -12 4 -7 -1 -4 -9 6 -9 11 -16 23 -16 28 0 4 -9 8 -20 8
-16 0 -20 -7 -20 -35 0 -29 5 -37 28 -46 15 -6 51 -9 80 -7 30 3 47 1 40 -3
-9 -6 -10 -9 -1 -9 7 0 22 10 35 23 13 12 15 15 4 7 -19 -15 -19 -14 -3 10 20
28 22 62 6 93 -9 18 -9 20 1 10 7 -7 16 -29 20 -50 l8 -38 1 33 c1 39 -49 98
-75 88 -10 -4 -13 -2 -8 6 5 8 2 9 -9 5 -10 -4 -16 -2 -14 5 1 6 -4 13 -12 16
-9 3 -11 0 -6 -9 4 -8 -2 -4 -15 7 -18 18 -20 25 -11 40 11 18 11 17 6 -3 -3
-12 -1 -24 4 -28 7 -3 8 0 5 9 -5 12 0 16 19 16 14 0 27 6 29 12 3 7 7 2 10
-10 4 -15 3 -20 -5 -15 -7 4 -6 -1 2 -10 7 -9 21 -17 30 -17 14 0 14 2 1 10
-13 8 -12 10 3 10 12 0 17 9 18 33 l2 32 7 -35 8 -35 -1 35 c-1 19 -6 35 -12
35 -5 1 -31 4 -56 8 -27 5 -58 3 -75 -3 -27 -9 -28 -9 -10 5 11 8 15 15 9 15
-6 0 -25 -11 -41 -25z"/>
<path d="M2624 588 c-2 -3 6 -4 18 -2 21 4 21 4 3 -4 -11 -5 -25 -7 -31 -5
-17 6 -44 -36 -44 -68 0 -27 34 -79 51 -79 6 0 7 5 3 12 -4 7 -3 8 5 4 6 -4 9
-11 6 -16 -3 -5 3 -14 14 -19 26 -14 34 -14 25 1 -4 7 -3 8 5 4 6 -4 9 -12 5
-17 -3 -6 2 -9 12 -7 20 3 32 -28 16 -44 -6 -6 -8 0 -6 19 3 26 3 26 -8 -5 -6
-18 -16 -31 -22 -29 -6 3 -11 8 -10 13 1 5 -7 17 -17 27 -22 19 -24 15 -8 -16
10 -21 10 -21 -5 -3 -9 11 -16 23 -16 28 0 4 -7 8 -15 8 -11 0 -15 -11 -15
-40 0 -37 2 -39 36 -46 19 -3 54 -4 77 -1 27 4 36 2 26 -4 -7 -5 -34 -9 -59
-10 -39 -2 -41 -3 -11 -6 46 -6 74 2 109 32 41 34 41 92 1 131 -17 16 -34 24
-44 20 -11 -4 -14 -2 -9 6 5 8 2 9 -9 5 -10 -4 -16 -2 -14 5 1 6 -4 13 -12 16
-9 3 -11 0 -6 -8 5 -9 4 -11 -3 -6 -25 15 -32 43 -15 57 12 10 15 10 9 2 -5
-9 0 -13 16 -13 13 0 29 -9 36 -20 7 -11 20 -20 30 -20 14 0 15 2 2 10 -13 8
-12 10 3 10 12 0 17 9 18 33 l2 32 7 -35 8 -35 -1 35 c-1 20 -7 36 -14 36 -7
1 -23 3 -35 4 -22 2 -22 2 2 9 16 5 -1 7 -43 7 -38 -1 -71 -4 -73 -8z"/>
<path d="M338 582 c-75 -2 -98 -6 -98 -16 0 -8 7 -16 15 -20 20 -7 22 -186 3
-186 -10 0 -10 -2 0 -9 11 -7 11 -9 -2 -14 -9 -4 -16 -13 -16 -22 0 -12 14
-15 70 -15 63 0 70 2 70 20 0 11 -6 20 -12 20 -9 0 -8 4 2 10 10 6 11 10 3 10
-30 0 -9 27 30 38 26 7 49 22 61 39 l19 28 -29 -27 c-17 -16 -34 -28 -38 -28
-4 0 7 12 24 26 29 25 31 31 28 81 -2 37 -8 57 -18 61 -8 4 -59 6 -112 4z"/>
<path d="M478 563 c-2 -10 0 -45 5 -78 4 -33 6 -88 3 -122 l-6 -63 57 0 58 0
0 140 0 140 -57 0 c-46 0 -57 -3 -60 -17z"/>
<path d="M930 459 c-40 -115 -44 -120 -56 -98 -13 23 -13 22 -14 -19 l0 -43
53 3 c47 3 52 5 50 26 -2 19 2 22 31 22 19 0 36 5 38 12 3 8 7 6 11 -5 4 -10
2 -16 -6 -14 -6 1 -13 -8 -15 -20 -3 -22 0 -23 57 -23 l61 0 0 35 c0 19 -4 35
-8 35 -5 0 -14 18 -21 41 -7 23 -14 39 -17 37 -2 -3 3 -24 11 -48 8 -23 15
-48 14 -54 0 -6 -18 38 -40 98 -22 60 -38 114 -36 119 1 5 11 -17 21 -48 10
-31 19 -55 22 -53 2 3 -4 29 -14 59 -18 52 -20 54 -59 57 l-40 3 -43 -122z"/>
<path d="M1450 556 c0 -14 4 -27 9 -31 5 -3 24 -31 41 -63 30 -55 34 -83 19
-142 -3 -12 10 -16 69 -18 67 -3 72 -1 72 18 0 11 -6 20 -12 20 -9 0 -8 4 2
10 10 6 11 10 3 10 -21 0 -15 57 12 111 14 27 23 54 20 59 -3 5 0 12 6 16 8 4
9 3 5 -4 -4 -7 -2 -12 3 -12 6 0 11 11 11 25 0 23 -3 25 -50 25 -43 0 -50 -3
-50 -19 0 -11 -3 -28 -6 -38 -3 -10 2 -7 10 7 8 14 15 22 16 18 0 -12 -33 -78
-40 -78 -13 0 -38 69 -33 89 5 20 1 21 -51 21 -53 0 -56 -1 -56 -24z"/>
<path d="M1810 440 l0 -140 70 0 c63 0 70 2 70 20 0 12 -7 20 -17 21 -15 0
-15 2 2 9 17 7 17 9 3 9 -22 1 -23 27 -3 47 8 9 15 11 15 5 0 -6 9 -11 20 -11
17 0 20 7 20 45 0 34 -4 45 -15 45 -9 0 -18 -7 -21 -15 -10 -24 -34 8 -34 45
0 27 3 30 26 27 33 -4 50 -29 26 -39 -12 -5 -10 -7 11 -7 31 -1 42 17 33 54
-6 25 -8 25 -106 25 l-100 0 0 -140z"/>
<path d="M2035 440 l0 -141 59 3 58 3 2 138 1 137 -60 0 -60 0 0 -140z"/>
<path d="M2178 448 c-4 -174 5 -191 12 -23 l6 130 2 -126 c2 -119 1 -127 -20
-145 -22 -19 -23 -19 -9 1 7 11 2 8 -12 -7 -14 -15 -28 -24 -33 -20 -4 4 -4 2
-1 -4 4 -7 25 -11 46 -10 42 1 43 -9 1 -17 -25 -4 -24 -4 2 -6 36 -1 109 62
107 93 l-2 21 -4 -21 c-2 -12 -16 -32 -31 -45 l-27 -24 25 28 c23 26 25 38 30
155 l5 127 6 -115 5 -115 2 128 2 127 -54 0 -55 0 -3 -132z"/>
<path d="M2366 470 c-22 -63 -42 -106 -46 -100 -5 7 -12 0 -19 -20 -6 -18 -8
-36 -5 -41 3 -5 28 -9 56 -9 48 0 50 1 46 25 -5 23 -2 25 28 25 29 0 33 -3 31
-22 -2 -22 2 -23 58 -23 l60 0 2 45 c1 25 -1 37 -4 27 -2 -9 -9 -14 -15 -10
-8 4 -9 0 -4 -13 4 -12 4 -15 -2 -9 -11 12 -82 203 -82 219 1 6 7 -2 15 -19
15 -34 20 -29 6 7 -7 19 -17 24 -48 26 l-39 3 -38 -111z"/>
</g>
</svg>
